<?xml version="1.0" encoding="UTF-8" standalone="no"?>
<!-- Created with Inkscape (http://www.inkscape.org/) -->

<svg
   width="210mm"
   height="297mm"
   viewBox="0 0 210 297"
   version="1.1"
   id="svg1014"
   inkscape:version="1.2.2 (b0a8486541, 2022-12-01)"
   sodipodi:docname="smallsigns.svg"
   xmlns:inkscape="http://www.inkscape.org/namespaces/inkscape"
   xmlns:sodipodi="http://sodipodi.sourceforge.net/DTD/sodipodi-0.dtd"
   xmlns="http://www.w3.org/2000/svg"
   xmlns:svg="http://www.w3.org/2000/svg"
   xmlns:rdf="http://www.w3.org/1999/02/22-rdf-syntax-ns#"
   xmlns:cc="http://creativecommons.org/ns#"
   xmlns:dc="http://purl.org/dc/elements/1.1/">
  <defs
     id="defs1008" />
  <sodipodi:namedview
     id="base"
     pagecolor="#ffffff"
     bordercolor="#666666"
     borderopacity="1.0"
     inkscape:pageopacity="0.0"
     inkscape:pageshadow="2"
     inkscape:zoom="0.98994949"
     inkscape:cx="325.26912"
     inkscape:cy="273.75134"
     inkscape:document-units="mm"
     inkscape:current-layer="layer1"
     showgrid="false"
     inkscape:snap-global="false"
     inkscape:window-width="1920"
     inkscape:window-height="1026"
     inkscape:window-x="0"
     inkscape:window-y="30"
     inkscape:window-maximized="1"
     inkscape:showpageshadow="0"
     inkscape:pagecheckerboard="0"
     inkscape:deskcolor="#d1d1d1" />
  <metadata
     id="metadata1011">
    <rdf:RDF>
      <cc:Work
         rdf:about="">
        <dc:format>image/svg+xml</dc:format>
        <dc:type
           rdf:resource="http://purl.org/dc/dcmitype/StillImage" />
      </cc:Work>
    </rdf:RDF>
  </metadata>
  <g
     inkscape:label="Layer 1"
     inkscape:groupmode="layer"
     id="layer1">
    <g
       id="g1881">
      <rect
         y="9.3601189"
         x="12.568861"
         height="19.998007"
         width="66.592056"
         id="rect1590"
         style="opacity:1;fill:#000000;fill-opacity:1;stroke:none;stroke-width:0.876391;stroke-miterlimit:4;stroke-dasharray:none" />
      <rect
         y="9.3601189"
         x="12.568861"
         height="19.998007"
         width="66.592056"
         id="rect1727"
         style="opacity:1;fill:#000000;fill-opacity:1;stroke:none;stroke-width:0.876391;stroke-miterlimit:4;stroke-dasharray:none" />
      <g
         transform="matrix(0.5274268,0,0,0.5274268,7.5014936,5.3081479)"
         id="g1747">
        <circle
           style="opacity:1;fill:#ffffff;fill-opacity:1;stroke:none;stroke-width:2;stroke-miterlimit:4;stroke-dasharray:none"
           id="circle1729"
           cx="23.434523"
           cy="20.793898"
           r="8.6934528" />
        <g
           style="fill-rule:evenodd;image-rendering:optimizeQuality;shape-rendering:geometricPrecision;text-rendering:geometricPrecision"
           id="g1745"
           transform="matrix(2.2019888e-4,0,0,2.2019888e-4,14.331721,11.508661)">
          <path
             id="path1731"
             d="m 41339,4191 c 20917,0 37976,17060 37976,37977 0,20916 -17059,37976 -37976,37976 C 20422,80144 3363,63084 3363,42168 3363,21251 20422,4191 41339,4191 Z M 66626,60856 22650,16881 c 5232,-3880 11700,-6180 18689,-6180 17331,0 31466,14136 31466,31467 0,6988 -2300,13456 -6179,18688 z M 16052,23479 60028,67454 c -5232,3880 -11700,6180 -18689,6180 -17331,0 -31466,-14135 -31466,-31466 0,-6989 2299,-13457 6179,-18689 z"
             inkscape:connector-curvature="0"
             style="fill:#ff0000;stroke:#ffffff;stroke-width:2756" />
          <path
             id="path1733"
             d="m 13627,50815 h 5206 v -2690 h -1125 c 40,562 -13,1048 -722,1010 -1064,-1631 -3277,-5543 -784,-6998 -1425,-8885 8854,-10017 12248,-3692 1379,2570 -759,9729 -2171,12090 52,1146 57,1796 -1119,2407 h -2632"
             inkscape:connector-curvature="0"
             style="fill:none;stroke:#000000;stroke-width:556" />
          <path
             id="path1735"
             d="M 26279,51151 H 36359"
             inkscape:connector-curvature="0"
             style="fill:none;stroke:#000000;stroke-width:556" />
          <path
             id="path1737"
             d="m 18721,41298 h 10301 l 1344,-616"
             inkscape:connector-curvature="0"
             style="fill:none;stroke:#000000;stroke-width:787" />
          <path
             id="path1739"
             d="m 25496,47876 a 1736,2939 0 1 0 -3472,0 1736,2939 0 1 0 3472,0"
             inkscape:connector-curvature="0"
             style="fill:none;stroke:#000000;stroke-width:787" />
          <path
             id="path1741"
             d="m 23648,64363 8454,-7782 5739,1680"
             inkscape:connector-curvature="0"
             style="fill:none;stroke:#000000;stroke-width:787" />
          <path
             id="path1743"
             d="m 36020,54734 c 390,-2034 -514,-4068 -1343,-6103 -1096,-1710 -2134,-3449 -4143,-4702 -862,-635 -413,-1269 224,-1904 1176,-205 2351,-112 3527,280 3049,2296 3646,4591 4871,6886 168,411 559,448 1175,112 728,-7893 1736,-14836 2464,-22729 -45,-1653 2411,-1384 2463,-56 112,3564 224,7128 336,10693 -155,930 1028,859 1231,112 803,-4311 1605,-8622 2408,-12933 298,-821 821,-1194 1567,-1119 3672,-418 349,11939 -56,15395 -78,592 76,802 336,840 347,112 571,-37 672,-448 751,-2068 2074,-9372 4409,-11186 1502,-1167 1793,127 1542,2406 -447,4062 -2620,11115 -2735,11929 -119,605 -88,1420 756,1064 1899,-2231 3799,-4462 5698,-6694 1228,-962 2074,107 1648,1373 -1738,2998 -3470,5997 -5630,8995 -2724,3907 -2412,7902 -4729,11910 -1631,1886 -3509,2458 -5556,2129 -2311,900 -4457,813 -6491,52 -2423,-1868 -4842,-2705 -4644,-6302 z"
             inkscape:connector-curvature="0" />
        </g>
      </g>
      <flowRoot
         transform="matrix(0.11183367,0,0,0.11183367,9.7676341,5.3795079)"
         style="font-style:normal;font-weight:normal;font-size:40px;line-height:1.25;font-family:sans-serif;letter-spacing:0px;word-spacing:0px;fill:#ffffff;fill-opacity:1;stroke:none"
         id="flowRoot1759"
         xml:space="preserve"><flowRegion
           style="fill:#ffffff"
           id="flowRegion1751"><rect
             style="fill:#ffffff"
             y="51.448254"
             x="142.85715"
             height="185.0446"
             width="665.15204"
             id="rect1749" /></flowRegion><flowPara
           id="flowPara1753"
           style="font-style:normal;font-variant:normal;font-weight:normal;font-stretch:normal;font-family:Roboto;-inkscape-font-specification:Roboto">For switching on and off, </flowPara><flowPara
           id="flowPara1755"
           style="font-style:normal;font-variant:normal;font-weight:normal;font-stretch:normal;font-family:Roboto;-inkscape-font-specification:Roboto">please consult the guide </flowPara><flowPara
           id="flowPara1757"
           style="font-style:normal;font-variant:normal;font-weight:normal;font-stretch:normal;font-family:Roboto;-inkscape-font-specification:Roboto">at the mixer.</flowPara></flowRoot>
    </g>
    <g
       id="g1919"
       transform="translate(74.083333)">
      <rect
         style="opacity:1;fill:#000000;fill-opacity:1;stroke:none;stroke-width:0.876391;stroke-miterlimit:4;stroke-dasharray:none"
         id="rect1883"
         width="66.592056"
         height="19.998007"
         x="12.568861"
         y="9.3601189" />
      <rect
         style="opacity:1;fill:#000000;fill-opacity:1;stroke:none;stroke-width:0.876391;stroke-miterlimit:4;stroke-dasharray:none"
         id="rect1885"
         width="66.592056"
         height="19.998007"
         x="12.568861"
         y="9.3601189" />
      <g
         id="g1905"
         transform="matrix(0.5274268,0,0,0.5274268,7.5014936,5.3081479)">
        <circle
           r="8.6934528"
           cy="20.793898"
           cx="23.434523"
           id="circle1887"
           style="opacity:1;fill:#ffffff;fill-opacity:1;stroke:none;stroke-width:2;stroke-miterlimit:4;stroke-dasharray:none" />
        <g
           transform="matrix(2.2019888e-4,0,0,2.2019888e-4,14.331721,11.508661)"
           id="g1903"
           style="fill-rule:evenodd;image-rendering:optimizeQuality;shape-rendering:geometricPrecision;text-rendering:geometricPrecision">
          <path
             style="fill:#ff0000;stroke:#ffffff;stroke-width:2756"
             inkscape:connector-curvature="0"
             d="m 41339,4191 c 20917,0 37976,17060 37976,37977 0,20916 -17059,37976 -37976,37976 C 20422,80144 3363,63084 3363,42168 3363,21251 20422,4191 41339,4191 Z M 66626,60856 22650,16881 c 5232,-3880 11700,-6180 18689,-6180 17331,0 31466,14136 31466,31467 0,6988 -2300,13456 -6179,18688 z M 16052,23479 60028,67454 c -5232,3880 -11700,6180 -18689,6180 -17331,0 -31466,-14135 -31466,-31466 0,-6989 2299,-13457 6179,-18689 z"
             id="path1889" />
          <path
             style="fill:none;stroke:#000000;stroke-width:556"
             inkscape:connector-curvature="0"
             d="m 13627,50815 h 5206 v -2690 h -1125 c 40,562 -13,1048 -722,1010 -1064,-1631 -3277,-5543 -784,-6998 -1425,-8885 8854,-10017 12248,-3692 1379,2570 -759,9729 -2171,12090 52,1146 57,1796 -1119,2407 h -2632"
             id="path1891" />
          <path
             style="fill:none;stroke:#000000;stroke-width:556"
             inkscape:connector-curvature="0"
             d="M 26279,51151 H 36359"
             id="path1893" />
          <path
             style="fill:none;stroke:#000000;stroke-width:787"
             inkscape:connector-curvature="0"
             d="m 18721,41298 h 10301 l 1344,-616"
             id="path1895" />
          <path
             style="fill:none;stroke:#000000;stroke-width:787"
             inkscape:connector-curvature="0"
             d="m 25496,47876 a 1736,2939 0 1 0 -3472,0 1736,2939 0 1 0 3472,0"
             id="path1897" />
          <path
             style="fill:none;stroke:#000000;stroke-width:787"
             inkscape:connector-curvature="0"
             d="m 23648,64363 8454,-7782 5739,1680"
             id="path1899" />
          <path
             inkscape:connector-curvature="0"
             d="m 36020,54734 c 390,-2034 -514,-4068 -1343,-6103 -1096,-1710 -2134,-3449 -4143,-4702 -862,-635 -413,-1269 224,-1904 1176,-205 2351,-112 3527,280 3049,2296 3646,4591 4871,6886 168,411 559,448 1175,112 728,-7893 1736,-14836 2464,-22729 -45,-1653 2411,-1384 2463,-56 112,3564 224,7128 336,10693 -155,930 1028,859 1231,112 803,-4311 1605,-8622 2408,-12933 298,-821 821,-1194 1567,-1119 3672,-418 349,11939 -56,15395 -78,592 76,802 336,840 347,112 571,-37 672,-448 751,-2068 2074,-9372 4409,-11186 1502,-1167 1793,127 1542,2406 -447,4062 -2620,11115 -2735,11929 -119,605 -88,1420 756,1064 1899,-2231 3799,-4462 5698,-6694 1228,-962 2074,107 1648,1373 -1738,2998 -3470,5997 -5630,8995 -2724,3907 -2412,7902 -4729,11910 -1631,1886 -3509,2458 -5556,2129 -2311,900 -4457,813 -6491,52 -2423,-1868 -4842,-2705 -4644,-6302 z"
             id="path1901" />
        </g>
      </g>
      <flowRoot
         xml:space="preserve"
         id="flowRoot1917"
         style="font-style:normal;font-weight:normal;font-size:40px;line-height:1.25;font-family:sans-serif;letter-spacing:0px;word-spacing:0px;fill:#ffffff;fill-opacity:1;stroke:none"
         transform="matrix(0.11183367,0,0,0.11183367,9.7676341,5.3795079)"><flowRegion
           id="flowRegion1909"
           style="fill:#ffffff"><rect
             id="rect1907"
             width="665.15204"
             height="185.0446"
             x="142.85715"
             y="51.448254"
             style="fill:#ffffff" /></flowRegion><flowPara
           style="font-style:normal;font-variant:normal;font-weight:normal;font-stretch:normal;font-family:Roboto;-inkscape-font-specification:Roboto"
           id="flowPara1911">For switching on and off, </flowPara><flowPara
           style="font-style:normal;font-variant:normal;font-weight:normal;font-stretch:normal;font-family:Roboto;-inkscape-font-specification:Roboto"
           id="flowPara1913">please consult the guide </flowPara><flowPara
           style="font-style:normal;font-variant:normal;font-weight:normal;font-stretch:normal;font-family:Roboto;-inkscape-font-specification:Roboto"
           id="flowPara1915">at the mixer.</flowPara></flowRoot>
    </g>
    <g
       id="g1957"
       transform="translate(0,24.001488)">
      <rect
         style="opacity:1;fill:#000000;fill-opacity:1;stroke:none;stroke-width:0.876391;stroke-miterlimit:4;stroke-dasharray:none"
         id="rect1921"
         width="66.592056"
         height="19.998007"
         x="12.568861"
         y="9.3601189" />
      <rect
         style="opacity:1;fill:#000000;fill-opacity:1;stroke:none;stroke-width:0.876391;stroke-miterlimit:4;stroke-dasharray:none"
         id="rect1923"
         width="66.592056"
         height="19.998007"
         x="12.568861"
         y="9.3601189" />
      <g
         id="g1943"
         transform="matrix(0.5274268,0,0,0.5274268,7.5014936,5.3081479)">
        <circle
           r="8.6934528"
           cy="20.793898"
           cx="23.434523"
           id="circle1925"
           style="opacity:1;fill:#ffffff;fill-opacity:1;stroke:none;stroke-width:2;stroke-miterlimit:4;stroke-dasharray:none" />
        <g
           transform="matrix(2.2019888e-4,0,0,2.2019888e-4,14.331721,11.508661)"
           id="g1941"
           style="fill-rule:evenodd;image-rendering:optimizeQuality;shape-rendering:geometricPrecision;text-rendering:geometricPrecision">
          <path
             style="fill:#ff0000;stroke:#ffffff;stroke-width:2756"
             inkscape:connector-curvature="0"
             d="m 41339,4191 c 20917,0 37976,17060 37976,37977 0,20916 -17059,37976 -37976,37976 C 20422,80144 3363,63084 3363,42168 3363,21251 20422,4191 41339,4191 Z M 66626,60856 22650,16881 c 5232,-3880 11700,-6180 18689,-6180 17331,0 31466,14136 31466,31467 0,6988 -2300,13456 -6179,18688 z M 16052,23479 60028,67454 c -5232,3880 -11700,6180 -18689,6180 -17331,0 -31466,-14135 -31466,-31466 0,-6989 2299,-13457 6179,-18689 z"
             id="path1927" />
          <path
             style="fill:none;stroke:#000000;stroke-width:556"
             inkscape:connector-curvature="0"
             d="m 13627,50815 h 5206 v -2690 h -1125 c 40,562 -13,1048 -722,1010 -1064,-1631 -3277,-5543 -784,-6998 -1425,-8885 8854,-10017 12248,-3692 1379,2570 -759,9729 -2171,12090 52,1146 57,1796 -1119,2407 h -2632"
             id="path1929" />
          <path
             style="fill:none;stroke:#000000;stroke-width:556"
             inkscape:connector-curvature="0"
             d="M 26279,51151 H 36359"
             id="path1931" />
          <path
             style="fill:none;stroke:#000000;stroke-width:787"
             inkscape:connector-curvature="0"
             d="m 18721,41298 h 10301 l 1344,-616"
             id="path1933" />
          <path
             style="fill:none;stroke:#000000;stroke-width:787"
             inkscape:connector-curvature="0"
             d="m 25496,47876 a 1736,2939 0 1 0 -3472,0 1736,2939 0 1 0 3472,0"
             id="path1935" />
          <path
             style="fill:none;stroke:#000000;stroke-width:787"
             inkscape:connector-curvature="0"
             d="m 23648,64363 8454,-7782 5739,1680"
             id="path1937" />
          <path
             inkscape:connector-curvature="0"
             d="m 36020,54734 c 390,-2034 -514,-4068 -1343,-6103 -1096,-1710 -2134,-3449 -4143,-4702 -862,-635 -413,-1269 224,-1904 1176,-205 2351,-112 3527,280 3049,2296 3646,4591 4871,6886 168,411 559,448 1175,112 728,-7893 1736,-14836 2464,-22729 -45,-1653 2411,-1384 2463,-56 112,3564 224,7128 336,10693 -155,930 1028,859 1231,112 803,-4311 1605,-8622 2408,-12933 298,-821 821,-1194 1567,-1119 3672,-418 349,11939 -56,15395 -78,592 76,802 336,840 347,112 571,-37 672,-448 751,-2068 2074,-9372 4409,-11186 1502,-1167 1793,127 1542,2406 -447,4062 -2620,11115 -2735,11929 -119,605 -88,1420 756,1064 1899,-2231 3799,-4462 5698,-6694 1228,-962 2074,107 1648,1373 -1738,2998 -3470,5997 -5630,8995 -2724,3907 -2412,7902 -4729,11910 -1631,1886 -3509,2458 -5556,2129 -2311,900 -4457,813 -6491,52 -2423,-1868 -4842,-2705 -4644,-6302 z"
             id="path1939" />
        </g>
      </g>
      <flowRoot
         xml:space="preserve"
         id="flowRoot1955"
         style="font-style:normal;font-weight:normal;font-size:40px;line-height:1.25;font-family:sans-serif;letter-spacing:0px;word-spacing:0px;fill:#ffffff;fill-opacity:1;stroke:none"
         transform="matrix(0.11183367,0,0,0.11183367,9.7676341,5.3795079)"><flowRegion
           id="flowRegion1947"
           style="fill:#ffffff"><rect
             id="rect1945"
             width="665.15204"
             height="185.0446"
             x="142.85715"
             y="51.448254"
             style="fill:#ffffff" /></flowRegion><flowPara
           style="font-style:normal;font-variant:normal;font-weight:normal;font-stretch:normal;font-family:Roboto;-inkscape-font-specification:Roboto"
           id="flowPara1949">For switching on and off, </flowPara><flowPara
           style="font-style:normal;font-variant:normal;font-weight:normal;font-stretch:normal;font-family:Roboto;-inkscape-font-specification:Roboto"
           id="flowPara1951">please consult the guide </flowPara><flowPara
           style="font-style:normal;font-variant:normal;font-weight:normal;font-stretch:normal;font-family:Roboto;-inkscape-font-specification:Roboto"
           id="flowPara1953">at the mixer.</flowPara></flowRoot>
    </g>
    <g
       transform="translate(74.083333,24.001488)"
       id="g1995">
      <rect
         y="9.3601189"
         x="12.568861"
         height="19.998007"
         width="66.592056"
         id="rect1959"
         style="opacity:1;fill:#000000;fill-opacity:1;stroke:none;stroke-width:0.876391;stroke-miterlimit:4;stroke-dasharray:none" />
      <rect
         y="9.3601189"
         x="12.568861"
         height="19.998007"
         width="66.592056"
         id="rect1961"
         style="opacity:1;fill:#000000;fill-opacity:1;stroke:none;stroke-width:0.876391;stroke-miterlimit:4;stroke-dasharray:none" />
      <g
         transform="matrix(0.5274268,0,0,0.5274268,7.5014936,5.3081479)"
         id="g1981">
        <circle
           style="opacity:1;fill:#ffffff;fill-opacity:1;stroke:none;stroke-width:2;stroke-miterlimit:4;stroke-dasharray:none"
           id="circle1963"
           cx="23.434523"
           cy="20.793898"
           r="8.6934528" />
        <g
           style="fill-rule:evenodd;image-rendering:optimizeQuality;shape-rendering:geometricPrecision;text-rendering:geometricPrecision"
           id="g1979"
           transform="matrix(2.2019888e-4,0,0,2.2019888e-4,14.331721,11.508661)">
          <path
             id="path1965"
             d="m 41339,4191 c 20917,0 37976,17060 37976,37977 0,20916 -17059,37976 -37976,37976 C 20422,80144 3363,63084 3363,42168 3363,21251 20422,4191 41339,4191 Z M 66626,60856 22650,16881 c 5232,-3880 11700,-6180 18689,-6180 17331,0 31466,14136 31466,31467 0,6988 -2300,13456 -6179,18688 z M 16052,23479 60028,67454 c -5232,3880 -11700,6180 -18689,6180 -17331,0 -31466,-14135 -31466,-31466 0,-6989 2299,-13457 6179,-18689 z"
             inkscape:connector-curvature="0"
             style="fill:#ff0000;stroke:#ffffff;stroke-width:2756" />
          <path
             id="path1967"
             d="m 13627,50815 h 5206 v -2690 h -1125 c 40,562 -13,1048 -722,1010 -1064,-1631 -3277,-5543 -784,-6998 -1425,-8885 8854,-10017 12248,-3692 1379,2570 -759,9729 -2171,12090 52,1146 57,1796 -1119,2407 h -2632"
             inkscape:connector-curvature="0"
             style="fill:none;stroke:#000000;stroke-width:556" />
          <path
             id="path1969"
             d="M 26279,51151 H 36359"
             inkscape:connector-curvature="0"
             style="fill:none;stroke:#000000;stroke-width:556" />
          <path
             id="path1971"
             d="m 18721,41298 h 10301 l 1344,-616"
             inkscape:connector-curvature="0"
             style="fill:none;stroke:#000000;stroke-width:787" />
          <path
             id="path1973"
             d="m 25496,47876 a 1736,2939 0 1 0 -3472,0 1736,2939 0 1 0 3472,0"
             inkscape:connector-curvature="0"
             style="fill:none;stroke:#000000;stroke-width:787" />
          <path
             id="path1975"
             d="m 23648,64363 8454,-7782 5739,1680"
             inkscape:connector-curvature="0"
             style="fill:none;stroke:#000000;stroke-width:787" />
          <path
             id="path1977"
             d="m 36020,54734 c 390,-2034 -514,-4068 -1343,-6103 -1096,-1710 -2134,-3449 -4143,-4702 -862,-635 -413,-1269 224,-1904 1176,-205 2351,-112 3527,280 3049,2296 3646,4591 4871,6886 168,411 559,448 1175,112 728,-7893 1736,-14836 2464,-22729 -45,-1653 2411,-1384 2463,-56 112,3564 224,7128 336,10693 -155,930 1028,859 1231,112 803,-4311 1605,-8622 2408,-12933 298,-821 821,-1194 1567,-1119 3672,-418 349,11939 -56,15395 -78,592 76,802 336,840 347,112 571,-37 672,-448 751,-2068 2074,-9372 4409,-11186 1502,-1167 1793,127 1542,2406 -447,4062 -2620,11115 -2735,11929 -119,605 -88,1420 756,1064 1899,-2231 3799,-4462 5698,-6694 1228,-962 2074,107 1648,1373 -1738,2998 -3470,5997 -5630,8995 -2724,3907 -2412,7902 -4729,11910 -1631,1886 -3509,2458 -5556,2129 -2311,900 -4457,813 -6491,52 -2423,-1868 -4842,-2705 -4644,-6302 z"
             inkscape:connector-curvature="0" />
        </g>
      </g>
      <flowRoot
         transform="matrix(0.11183367,0,0,0.11183367,9.7676341,5.3795079)"
         style="font-style:normal;font-weight:normal;font-size:40px;line-height:1.25;font-family:sans-serif;letter-spacing:0px;word-spacing:0px;fill:#ffffff;fill-opacity:1;stroke:none"
         id="flowRoot1993"
         xml:space="preserve"><flowRegion
           style="fill:#ffffff"
           id="flowRegion1985"><rect
             style="fill:#ffffff"
             y="51.448254"
             x="142.85715"
             height="185.0446"
             width="665.15204"
             id="rect1983" /></flowRegion><flowPara
           id="flowPara1987"
           style="font-style:normal;font-variant:normal;font-weight:normal;font-stretch:normal;font-family:Roboto;-inkscape-font-specification:Roboto">For switching on and off, </flowPara><flowPara
           id="flowPara1989"
           style="font-style:normal;font-variant:normal;font-weight:normal;font-stretch:normal;font-family:Roboto;-inkscape-font-specification:Roboto">please consult the guide </flowPara><flowPara
           id="flowPara1991"
           style="font-style:normal;font-variant:normal;font-weight:normal;font-stretch:normal;font-family:Roboto;-inkscape-font-specification:Roboto">at the mixer.</flowPara></flowRoot>
    </g>
  </g>
</svg>
